<svg width="51" height="63" viewBox="0 0 51 63" fill="none" xmlns="http://www.w3.org/2000/svg">
<path d="M23.201 49.4262C20.0903 49.4262 16.9796 49.4262 13.8732 49.4262C13.4169 49.4262 13.0221 49.3474 12.8027 48.892C12.5087 48.279 12.908 47.5697 13.6144 47.5653C14.1496 47.5653 14.2111 47.3332 14.2111 46.891C14.2023 36.8113 14.2023 26.7361 14.2067 16.6564C14.1672 14.848 15.6326 13.4556 17.3964 13.5695C21.253 13.5695 25.1095 13.5695 28.9661 13.5695C31.0019 13.5695 32.2567 14.8043 32.2699 16.8491C32.2831 19.5989 32.2831 22.3487 32.2655 25.0985C32.2655 25.5845 32.3884 25.8078 32.8885 25.9348C34.2048 26.2719 34.9507 27.3403 34.9507 28.8072C34.955 32.2838 34.9507 35.7605 34.9507 39.2415C34.9507 40.9711 35.9554 42.1533 37.6577 42.4729C39.6803 42.8495 41.5933 40.9448 41.1151 38.9481C40.4131 36.0932 39.5399 33.2778 38.7765 30.436C38.4782 29.5647 37.6533 29.6566 37.6709 28.3649C37.4603 27.2922 37.8815 25.7553 36.9645 25.0021C35.8369 24.0563 34.7181 23.093 33.5949 22.1385C31.8136 20.8337 33.8275 18.2021 35.5737 19.7302C36.6969 20.6848 37.7981 21.6612 38.9125 22.6245C40.7421 24.2052 40.3999 23.7892 40.6061 26.25C40.5929 27.2571 40.9483 28.3387 40.5754 29.302C40.4131 29.6304 40.5754 29.9281 40.6631 30.2302C41.3915 32.8618 42.1373 35.489 42.8525 38.1249C44.5636 45.4811 33.2878 46.8078 32.9851 39.3904C32.9631 35.8962 32.9807 32.402 32.9807 28.9035C33.143 28.1854 32.248 27.3009 32.1909 28.1504C32.1865 34.3768 32.1953 40.6076 32.1778 46.8341C32.0681 48.1739 33.6651 46.9654 33.6739 48.533C33.652 49.0672 33.2834 49.4131 32.6823 49.4175C31.0107 49.4262 29.3435 49.4219 27.6718 49.4219C26.1801 49.4219 24.6883 49.4219 23.1922 49.4219L23.201 49.4262ZM16.0889 31.8153C16.0889 36.8376 16.0977 41.8555 16.0757 46.8779C16.0757 47.4296 16.2425 47.5609 16.7733 47.5565C21.0555 47.5347 25.3377 47.5478 29.6199 47.5434C30.3131 47.5434 30.3131 47.5434 30.3131 46.8297C30.3131 36.8595 30.3131 26.8893 30.3131 16.9191C30.3131 15.8464 29.9138 15.4523 28.8301 15.4523C25.0788 15.4523 21.3319 15.4523 17.5806 15.4523C16.4706 15.4523 16.0889 15.8376 16.0889 16.9629C16.0889 21.9108 16.0889 26.8631 16.0889 31.8109V31.8153Z" fill="white"/>
<path d="M23.1747 24.1527C15.558 23.9687 17.7693 25.6414 17.449 18.1539C17.4534 17.1906 17.7781 16.8753 18.7302 16.8753C21.7312 16.8753 24.7366 16.8753 27.7376 16.8753C28.5976 16.8753 28.9486 17.195 28.9574 18.0532C28.9749 19.8966 28.9574 21.7444 28.9705 23.5878C28.9705 24.0432 28.7599 24.1614 28.3475 24.157C26.6232 24.1483 24.9033 24.1527 23.179 24.157L23.1747 24.1527Z" fill="white"/>
<path d="M48.2973 50.0655V12.8032H50.8947C50.0962 11.7217 49.2275 10.6971 48.2973 9.72939V9.68998H48.2622C42.519 3.7175 34.4417 3.05176e-05 25.4956 3.05176e-05C15.0797 3.05176e-05 5.84412 5.03548 0.0965241 12.7988H3.23357V50.0655H0C5.73882 57.9077 15.0227 63 25.5 63C35.9773 63 45.2568 57.9077 51 50.0655H48.3061H48.2973ZM6.8664 50.0655V12.8032H44.6601V50.0655H6.8664Z" fill="white"/>
</svg>
