<svg width="186" height="66" viewBox="0 0 186 66" fill="none" xmlns="http://www.w3.org/2000/svg">
<path d="M23.201 52.4262C20.0903 52.4262 16.9796 52.4262 13.8732 52.4262C13.4169 52.4262 13.0221 52.3474 12.8027 51.892C12.5087 51.279 12.908 50.5697 13.6144 50.5653C14.1496 50.5653 14.2111 50.3332 14.2111 49.891C14.2023 39.8113 14.2023 29.7361 14.2067 19.6564C14.1672 17.848 15.6326 16.4556 17.3964 16.5695C21.253 16.5695 25.1095 16.5695 28.9661 16.5695C31.0019 16.5695 32.2567 17.8043 32.2699 19.8491C32.2831 22.5989 32.2831 25.3487 32.2655 28.0985C32.2655 28.5845 32.3884 28.8078 32.8885 28.9348C34.2048 29.2719 34.9507 30.3403 34.9507 31.8072C34.955 35.2838 34.9507 38.7605 34.9507 42.2415C34.9507 43.9711 35.9554 45.1533 37.6577 45.4729C39.6803 45.8495 41.5933 43.9448 41.1151 41.9481C40.4131 39.0932 39.5399 36.2778 38.7765 33.436C38.4782 32.5647 37.6533 32.6566 37.6709 31.3649C37.4603 30.2922 37.8815 28.7553 36.9645 28.0021C35.8369 27.0563 34.7181 26.093 33.5949 25.1385C31.8136 23.8337 33.8275 21.2021 35.5737 22.7302C36.6969 23.6848 37.7981 24.6612 38.9125 25.6245C40.7421 27.2052 40.3999 26.7892 40.6061 29.25C40.5929 30.2571 40.9483 31.3387 40.5754 32.302C40.4131 32.6304 40.5754 32.9281 40.6631 33.2302C41.3915 35.8618 42.1373 38.489 42.8525 41.1249C44.5636 48.4811 33.2878 49.8078 32.9851 42.3904C32.9631 38.8962 32.9807 35.402 32.9807 31.9035C33.143 31.1854 32.248 30.3009 32.1909 31.1504C32.1865 37.3768 32.1953 43.6076 32.1778 49.8341C32.0681 51.1739 33.6651 49.9654 33.6739 51.533C33.652 52.0672 33.2834 52.4131 32.6823 52.4175C31.0107 52.4262 29.3435 52.4219 27.6718 52.4219C26.1801 52.4219 24.6883 52.4219 23.1922 52.4219L23.201 52.4262ZM16.0889 34.8153C16.0889 39.8376 16.0977 44.8555 16.0757 49.8779C16.0757 50.4296 16.2425 50.5609 16.7733 50.5565C21.0555 50.5347 25.3377 50.5478 29.6199 50.5434C30.3131 50.5434 30.3131 50.5434 30.3131 49.8297C30.3131 39.8595 30.3131 29.8893 30.3131 19.9191C30.3131 18.8464 29.9138 18.4523 28.8301 18.4523C25.0788 18.4523 21.3319 18.4523 17.5806 18.4523C16.4706 18.4523 16.0889 18.8376 16.0889 19.9629C16.0889 24.9108 16.0889 29.8631 16.0889 34.8109V34.8153Z" fill="white"/>
<path d="M23.1747 27.1527C15.558 26.9687 17.7693 28.6414 17.449 21.1539C17.4534 20.1906 17.7781 19.8753 18.7302 19.8753C21.7312 19.8753 24.7366 19.8753 27.7376 19.8753C28.5976 19.8753 28.9486 20.195 28.9574 21.0532C28.9749 22.8966 28.9574 24.7444 28.9705 26.5878C28.9705 27.0432 28.7599 27.1614 28.3475 27.157C26.6232 27.1483 24.9033 27.1527 23.179 27.157L23.1747 27.1527Z" fill="white"/>
<path d="M48.2973 53.0655V15.8032H50.8947C50.0962 14.7217 49.2275 13.6971 48.2973 12.7294V12.69H48.2622C42.519 6.7175 34.4417 3.00003 25.4956 3.00003C15.0797 3.00003 5.84412 8.03548 0.0965241 15.7988H3.23357V53.0655H0C5.73882 60.9077 15.0227 66 25.5 66C35.9773 66 45.2568 60.9077 51 53.0655H48.3061H48.2973ZM6.8664 53.0655V15.8032H44.6601V53.0655H6.8664Z" fill="white"/>
<path d="M132.494 65.234H125.161V63.0013C124.684 63.4764 124.136 63.8861 123.504 64.2424C122.878 64.5986 122.216 64.9015 121.519 65.1568C120.821 65.4121 120.112 65.6022 119.378 65.7387C118.651 65.8753 117.96 65.9406 117.316 65.9406C115.819 65.9406 114.389 65.7031 113.011 65.2281C111.634 64.753 110.424 64.0286 109.369 63.0488C108.314 62.0691 107.479 60.7984 106.847 59.2426C106.221 57.6869 105.905 55.8461 105.905 53.7144V35.9126H113.238V53.3582C113.238 54.4092 113.399 55.3296 113.721 56.1193C114.043 56.915 114.466 57.5741 114.991 58.0966C115.515 58.6192 116.129 59.0111 116.821 59.2605C117.518 59.5158 118.24 59.6405 118.985 59.6405C121.358 59.6405 123.415 58.827 125.143 57.2059V35.9066H132.476V65.2162L132.494 65.234Z" fill="white"/>
<path d="M168.997 50.5317C168.997 51.0067 168.973 51.4937 168.92 52.0043C168.866 52.509 168.807 53.0375 168.741 53.5779H145.222C145.496 54.4211 145.878 55.2286 146.367 55.9887C146.856 56.7487 147.464 57.4078 148.173 57.966C148.889 58.5242 149.693 58.9636 150.594 59.2842C151.494 59.6049 152.484 59.7652 153.575 59.7652C154.898 59.7652 156.221 59.5395 157.545 59.0823C158.868 58.6251 159.971 58.0076 160.854 57.2297L165.486 61.8435C163.447 63.3636 161.456 64.4383 159.506 65.0618C157.557 65.6853 155.494 66 153.318 66C151.142 66 149.05 65.5962 147.13 64.7827C145.21 63.9692 143.547 62.8707 142.14 61.4872C140.733 60.1036 139.618 58.4707 138.807 56.5943C137.991 54.7179 137.585 52.7169 137.585 50.5852C137.585 48.4534 137.991 46.4524 138.807 44.576C139.624 42.6996 140.745 41.0667 142.17 39.6831C143.595 38.2996 145.258 37.2011 147.16 36.3876C149.062 35.5741 151.094 35.1703 153.27 35.1703C155.446 35.1703 157.324 35.5503 159.226 36.3104C161.128 37.0705 162.809 38.1274 164.264 39.4812C165.724 40.8351 166.875 42.4502 167.728 44.3266C168.574 46.203 169.003 48.2753 169.003 50.5377L168.997 50.5317ZM161.307 47.6934C160.729 45.8348 159.703 44.3385 158.225 43.2043C156.746 42.0702 155.077 41.5061 153.211 41.5061C151.345 41.5061 149.729 42.0702 148.275 43.2043C146.814 44.3385 145.795 45.8348 145.222 47.6934H161.313H161.307Z" fill="white"/>
<path d="M186 65.0855C185.422 65.3587 184.772 65.5725 184.039 65.7447C183.305 65.9109 182.554 66 181.773 66C180.688 66 179.645 65.8575 178.643 65.5665C177.642 65.2815 176.765 64.8124 176.02 64.1711C175.275 63.5298 174.679 62.6926 174.238 61.6594C173.796 60.6262 173.576 59.3851 173.576 57.9304V23.146H181.058V56.6656C181.058 57.8829 181.302 58.7201 181.797 59.1773C182.286 59.6345 182.876 59.8602 183.556 59.8602C184.402 59.8602 185.219 59.6049 186 59.1001V65.0855Z" fill="white"/>
<path d="M103.675 18.9776H81.0687C80.4905 18.9776 79.936 18.9776 79.2922 18.9776C78.7258 18.9776 78.1952 18.9895 77.5752 18.9776H74.6778V20.2305C73.7836 20.7768 72.8715 21.4715 71.9414 22.3206C69.3422 24.6958 67.8637 26.5663 67.5 27.926C70.3854 25.4856 72.5138 24.2564 73.8909 24.2564C74.2009 24.2564 74.4632 24.3277 74.6778 24.4583V59.4861C74.8865 61.0359 75.8344 62.5501 76.7883 63.6248C78.0223 65.0143 79.8108 65.9881 81.6888 65.9881C83.9244 65.9881 85.9275 65.3171 87.6981 63.9811C89.4687 62.6451 91.2155 60.5074 92.9503 57.5741C92.5867 57.865 91.8295 58.4766 90.6789 59.4089C89.5224 60.3471 88.5149 60.8102 87.6445 60.8102C86.4164 60.8102 85.6592 59.8067 85.3731 57.7878V41.5298H103.425V35.1406H85.3731V27.4807C85.3731 26.8691 85.3433 26.2753 85.2836 25.7053H103.681V18.9598L103.675 18.9776Z" fill="white"/>
<path d="M72.9549 14.827C71.5539 13.7047 70.8505 11.668 70.8505 8.7228C70.8505 6.39514 71.2618 4.35843 72.0786 2.61862C72.8953 0.872874 74.1234 0 75.7569 0C77.6229 0 79.7274 0.77193 82.0644 2.32766C84.4013 3.87746 85.5698 6.00917 85.5698 8.7228C85.5698 11.1277 84.9081 13.0278 83.5846 14.4232C82.2611 15.8186 80.6276 16.5193 78.6781 16.5193C76.2637 16.5193 74.3559 15.9552 72.9549 14.8329V14.827Z" fill="white"/>
</svg>
